<mxfile host="Electron" agent="Mozilla/5.0 (Macintosh; Intel Mac OS X 10_15_7) AppleWebKit/537.36 (KHTML, like Gecko) draw.io/26.0.16 Chrome/132.0.6834.196 Electron/34.2.0 Safari/537.36" version="26.0.16">
  <diagram name="ページ1" id="ZilS8tXetcXnUrrD2hd9">
    <mxGraphModel dx="816" dy="597" grid="1" gridSize="10" guides="1" tooltips="1" connect="1" arrows="1" fold="1" page="1" pageScale="1" pageWidth="3300" pageHeight="4681" background="none" math="0" shadow="0">
      <root>
        <mxCell id="0" />
        <mxCell id="1" parent="0" />
        <mxCell id="TmN9C5LeOO5RFW65mYAM-4" value="&lt;span style=&quot;font-family: &amp;quot;Ubuntu Mono derivative Powerline&amp;quot;; font-style: normal; font-variant-ligatures: normal; font-variant-caps: normal; font-weight: 700; letter-spacing: normal; orphans: 2; text-indent: 0px; text-transform: none; widows: 2; word-spacing: 0px; -webkit-text-stroke-width: 0px; white-space: normal; text-decoration-thickness: initial; text-decoration-style: initial; text-decoration-color: initial; float: none; display: inline !important;&quot;&gt;H&lt;/span&gt;" style="text;whiteSpace=wrap;html=1;labelBackgroundColor=none;verticalAlign=middle;fontSize=240;fontColor=#FF99FF;align=right;shadow=1;textShadow=0;" vertex="1" parent="1">
          <mxGeometry x="483" y="459" width="113" height="150" as="geometry" />
        </mxCell>
        <mxCell id="TmN9C5LeOO5RFW65mYAM-5" value="&lt;span style=&quot;font-family: &amp;quot;Ubuntu Mono derivative Powerline&amp;quot;; font-size: 200px; font-style: normal; font-variant-ligatures: normal; font-variant-caps: normal; font-weight: 700; letter-spacing: normal; orphans: 2; text-align: center; text-indent: 0px; text-transform: none; widows: 2; word-spacing: 0px; -webkit-text-stroke-width: 0px; white-space: normal; text-decoration-thickness: initial; text-decoration-style: initial; text-decoration-color: initial; float: none; display: inline !important;&quot;&gt;y&lt;/span&gt;" style="text;whiteSpace=wrap;html=1;labelBackgroundColor=none;verticalAlign=middle;fontColor=#FF99FF;shadow=1;textShadow=0;" vertex="1" parent="1">
          <mxGeometry x="578" y="435" width="130" height="210" as="geometry" />
        </mxCell>
        <mxCell id="TmN9C5LeOO5RFW65mYAM-6" value="&lt;span style=&quot;font-family: &amp;quot;Ubuntu Mono derivative Powerline&amp;quot;; font-size: 200px; font-style: normal; font-variant-ligatures: normal; font-variant-caps: normal; font-weight: 700; letter-spacing: normal; orphans: 2; text-align: center; text-indent: 0px; text-transform: none; widows: 2; word-spacing: 0px; -webkit-text-stroke-width: 0px; white-space: normal; text-decoration-thickness: initial; text-decoration-style: initial; text-decoration-color: initial; float: none; display: inline !important;&quot;&gt;g&lt;/span&gt;" style="text;whiteSpace=wrap;html=1;labelBackgroundColor=none;verticalAlign=middle;fontColor=#FF99FF;shadow=1;textShadow=0;" vertex="1" parent="1">
          <mxGeometry x="658" y="447" width="130" height="210" as="geometry" />
        </mxCell>
        <mxCell id="TmN9C5LeOO5RFW65mYAM-7" value="&lt;span style=&quot;font-family: &amp;quot;Ubuntu Mono derivative Powerline&amp;quot;; font-size: 200px; font-style: normal; font-variant-ligatures: normal; font-variant-caps: normal; font-weight: 700; letter-spacing: normal; orphans: 2; text-align: center; text-indent: 0px; text-transform: none; widows: 2; word-spacing: 0px; -webkit-text-stroke-width: 0px; white-space: normal; text-decoration-thickness: initial; text-decoration-style: initial; text-decoration-color: initial; float: none; display: inline !important;&quot;&gt;i&lt;/span&gt;" style="text;whiteSpace=wrap;html=1;labelBackgroundColor=none;verticalAlign=middle;fontColor=#FF99FF;shadow=1;textShadow=0;" vertex="1" parent="1">
          <mxGeometry x="720" y="448" width="130" height="159" as="geometry" />
        </mxCell>
        <mxCell id="TmN9C5LeOO5RFW65mYAM-8" value="&lt;span style=&quot;font-family: &amp;quot;Ubuntu Mono derivative Powerline&amp;quot;; font-size: 200px; font-style: normal; font-variant-ligatures: normal; font-variant-caps: normal; font-weight: 700; letter-spacing: normal; orphans: 2; text-align: center; text-indent: 0px; text-transform: none; widows: 2; word-spacing: 0px; -webkit-text-stroke-width: 0px; white-space: normal; text-decoration-thickness: initial; text-decoration-style: initial; text-decoration-color: initial; float: none; display: inline !important;&quot;&gt;e&lt;/span&gt;" style="text;whiteSpace=wrap;html=1;labelBackgroundColor=none;verticalAlign=middle;fontColor=#FF99FF;shadow=1;textShadow=0;" vertex="1" parent="1">
          <mxGeometry x="785" y="459" width="100" height="140" as="geometry" />
        </mxCell>
        <mxCell id="TmN9C5LeOO5RFW65mYAM-10" value="&lt;span style=&quot;font-family: &amp;quot;Ubuntu Mono derivative Powerline&amp;quot;; font-size: 200px; font-style: normal; font-variant-ligatures: normal; font-variant-caps: normal; font-weight: 700; letter-spacing: normal; orphans: 2; text-align: center; text-indent: 0px; text-transform: none; widows: 2; word-spacing: 0px; -webkit-text-stroke-width: 0px; white-space: normal; text-decoration-thickness: initial; text-decoration-style: initial; text-decoration-color: initial; float: none; display: inline !important;&quot;&gt;n&lt;/span&gt;" style="text;whiteSpace=wrap;html=1;labelBackgroundColor=none;verticalAlign=middle;fontColor=#000000;shadow=1;textShadow=0;" vertex="1" parent="1">
          <mxGeometry x="867" y="500" width="100" height="140" as="geometry" />
        </mxCell>
        <mxCell id="TmN9C5LeOO5RFW65mYAM-11" value="&lt;span style=&quot;color: rgb(0, 0, 0); font-family: &amp;quot;Source Code Pro for powerline&amp;quot;; font-style: normal; font-variant-ligatures: normal; font-variant-caps: normal; font-weight: 400; letter-spacing: normal; orphans: 2; text-align: center; text-indent: 0px; text-transform: none; widows: 2; word-spacing: 0px; -webkit-text-stroke-width: 0px; white-space: normal; text-decoration-thickness: initial; text-decoration-style: initial; text-decoration-color: initial; float: none; display: inline !important;&quot;&gt;N&lt;/span&gt;" style="text;whiteSpace=wrap;html=1;labelBackgroundColor=none;verticalAlign=middle;fontSize=220;shadow=1;textShadow=0;" vertex="1" parent="1">
          <mxGeometry x="506" y="355" width="140" height="136" as="geometry" />
        </mxCell>
        <mxCell id="TmN9C5LeOO5RFW65mYAM-12" value="&lt;span style=&quot;color: rgb(0, 0, 0); font-family: &amp;quot;Source Code Pro for powerline&amp;quot;; font-size: 180px; font-style: normal; font-variant-ligatures: normal; font-variant-caps: normal; font-weight: 400; letter-spacing: normal; orphans: 2; text-align: center; text-indent: 0px; text-transform: none; widows: 2; word-spacing: 0px; -webkit-text-stroke-width: 0px; white-space: normal; text-decoration-thickness: initial; text-decoration-style: initial; text-decoration-color: initial; float: none; display: inline !important;&quot;&gt;e&lt;/span&gt;" style="text;whiteSpace=wrap;html=1;labelBackgroundColor=none;verticalAlign=middle;shadow=1;textShadow=0;" vertex="1" parent="1">
          <mxGeometry x="610" y="361" width="100" height="160" as="geometry" />
        </mxCell>
        <mxCell id="TmN9C5LeOO5RFW65mYAM-13" value="&lt;span style=&quot;color: rgb(0, 0, 0); font-family: &amp;quot;Source Code Pro for powerline&amp;quot;; font-size: 180px; font-style: normal; font-variant-ligatures: normal; font-variant-caps: normal; font-weight: 400; letter-spacing: normal; orphans: 2; text-align: center; text-indent: 0px; text-transform: none; widows: 2; word-spacing: 0px; -webkit-text-stroke-width: 0px; white-space: normal; text-decoration-thickness: initial; text-decoration-style: initial; text-decoration-color: initial; float: none; display: inline !important;&quot;&gt;t&lt;/span&gt;" style="text;whiteSpace=wrap;html=1;labelBackgroundColor=none;verticalAlign=middle;shadow=1;textShadow=0;" vertex="1" parent="1">
          <mxGeometry x="672" y="362" width="140" height="130" as="geometry" />
        </mxCell>
        <mxCell id="TmN9C5LeOO5RFW65mYAM-9" value="&lt;span style=&quot;font-family: &amp;quot;Ubuntu Mono derivative Powerline&amp;quot;; font-size: 200px; font-style: normal; font-variant-ligatures: normal; font-variant-caps: normal; font-weight: 700; letter-spacing: normal; orphans: 2; text-indent: 0px; text-transform: none; widows: 2; word-spacing: 0px; -webkit-text-stroke-width: 0px; white-space: normal; text-decoration-thickness: initial; text-decoration-style: initial; text-decoration-color: initial; float: none; display: inline !important;&quot;&gt;e&lt;/span&gt;" style="text;whiteSpace=wrap;html=1;labelBackgroundColor=none;flipH=0;direction=east;verticalAlign=middle;fontColor=#FF99FF;align=left;shadow=1;textShadow=0;" vertex="1" parent="1">
          <mxGeometry x="950" y="482" width="100" height="140" as="geometry" />
        </mxCell>
        <mxCell id="TmN9C5LeOO5RFW65mYAM-16" value="" style="ellipse;whiteSpace=wrap;html=1;aspect=fixed;fillColor=#000000;" vertex="1" parent="1">
          <mxGeometry x="745" y="456" width="35" height="35" as="geometry" />
        </mxCell>
      </root>
    </mxGraphModel>
  </diagram>
</mxfile>
